<svg width="278" height="50" viewBox="0 0 278 50" fill="none" xmlns="http://www.w3.org/2000/svg">
<g clip-path="url(#clip0_2950_7544)">
<path d="M99.3834 19.2225V20.0076C98.7554 22.5198 98.7554 22.8338 98.7554 23.1478H96.7142V22.5198L97.0282 21.2637H89.2561V11.9999H91.6113V19.2225H95.6936V11.9999H98.0488V19.2225H99.3834ZM107.176 21.473L106.312 20.3216C105.684 20.7926 104.847 21.4207 103.643 21.4207C100.974 21.4207 100.974 19.5365 100.974 18.3589V14.6691H103.094V17.9926C103.094 19.5889 103.094 19.5889 104.69 19.5889L106.155 19.2225V14.6691H108.275V18.7515C108.275 19.6674 108.275 19.6674 108.746 20.2954L107.176 21.473ZM113.087 14.5121C114.316 14.5121 114.944 14.9832 115.363 15.2972V11.9999L116.933 11.6074H117.483V15.2972C117.902 14.9832 118.53 14.5121 119.76 14.5121C122.429 14.5121 122.429 16.9458 122.429 17.6524V18.2804C122.429 18.987 122.429 21.4207 119.76 21.4207C118.53 21.4207 117.902 20.9496 117.483 20.6356V23.9329H115.363V20.6356C114.944 20.9496 114.316 21.4207 113.087 21.4207C110.417 21.4207 110.417 18.987 110.417 18.2804V17.6524C110.417 16.9458 110.417 14.5121 113.087 14.5121ZM118.53 16.3439L117.483 16.6056V19.3272L118.53 19.5889C120.231 19.5889 120.231 19.5889 120.231 17.9664C120.231 16.3439 120.231 16.3439 118.53 16.3439ZM114.316 19.5889L115.363 19.3272V16.6056L114.316 16.3439C112.615 16.3439 112.615 16.3439 112.615 17.9664C112.615 19.5889 112.615 19.5889 114.316 19.5889ZM124.576 14.6691H125.675L126.381 15.6112C127.009 15.1402 127.847 14.5121 129.208 14.5121C132.112 14.5121 132.112 16.7103 132.112 17.6524V18.2804C132.112 18.987 132.112 21.4207 128.972 21.4207C128.266 21.4207 127.637 21.2637 126.695 21.0282V23.9329H124.576V14.6691ZM129.914 17.9664C129.914 16.3439 129.914 16.3439 128.344 16.3439H128.161L126.695 16.7103V19.5365C127.31 19.6935 127.716 19.6935 128.187 19.6935C129.914 19.6935 129.914 19.6935 129.914 17.9664ZM137.787 16.2393C136.139 16.2393 136.139 16.2393 136.139 17.9664C136.139 19.6935 136.139 19.6935 137.787 19.6935C139.436 19.6935 139.436 19.6935 139.436 17.9664C139.436 16.2393 139.436 16.2393 137.787 16.2393ZM137.473 14.5121H138.101C141.634 14.5121 141.634 16.7103 141.634 17.6524V18.2804C141.634 19.2225 141.634 21.4207 138.101 21.4207H137.473C133.941 21.4207 133.941 19.2225 133.941 18.2804V17.6524C133.941 16.7103 133.941 14.5121 137.473 14.5121ZM143.78 21.2637V14.6691L147.313 14.6691C148.883 14.6691 150.767 14.6691 150.767 16.3178C150.767 16.7103 150.767 17.4954 149.354 17.8486V18.0842C150.767 18.4374 150.767 19.2225 150.767 19.615C150.767 21.2637 148.883 21.2637 147.313 21.2637H143.78ZM147.549 18.5159H145.9V19.8506H147.549C148.491 19.8506 148.491 19.8506 148.491 19.1832C148.491 18.5159 148.491 18.5159 147.549 18.5159ZM147.549 16.0822H145.9V17.4169H147.549C148.491 17.4169 148.491 17.4169 148.491 16.7495C148.491 16.0822 148.491 16.0822 147.549 16.0822ZM160.76 14.6691L162.88 14.6691V21.2637H160.76V14.6691ZM152.91 14.6691H155.029V16.6318C155.971 16.3963 156.521 16.3963 156.756 16.3963C159.583 16.3963 159.583 18.2804 159.583 18.9085C159.583 21.2637 157.385 21.2637 156.128 21.2637H152.91V14.6691ZM156.128 17.9664H155.029V19.8506H156.128C157.385 19.8506 157.385 19.8506 157.385 18.9085C157.385 17.9664 157.385 17.9664 156.128 17.9664ZM167.22 18.5945C167.22 19.8506 167.22 19.8506 168.633 19.8506H170.125L171.381 19.5365H171.773V21.1067C170.517 21.4207 169.104 21.4207 168.633 21.4207C165.022 21.4207 165.022 19.2225 165.022 18.2804V17.6524C165.022 16.7103 165.022 14.5121 168.319 14.5121H168.947C172.244 14.5121 172.244 16.7103 172.244 17.6262V18.2804L171.616 18.4374C170.988 18.5945 170.517 18.5945 168.633 18.5945L167.22 18.5945ZM167.22 17.4169L170.046 17.4169C170.046 16.0037 170.046 16.0037 168.633 16.0037C167.22 16.0037 167.22 16.0037 167.22 17.4169ZM96.4002 31.5739V35.2637H94.2805V31.9402C94.2805 30.3439 94.2805 30.3439 92.6842 30.3439L91.2188 30.7103V35.2637H89.0991V28.6691H90.1982L90.9047 29.6112C91.5328 29.1402 92.3702 28.5121 93.731 28.5121C96.4002 28.5121 96.4002 30.3963 96.4002 31.5739ZM103.488 34.3216C102.756 34.8711 102.023 35.4207 100.584 35.4207C98.3069 35.4207 98.3069 34.0861 98.3069 33.5365C98.3069 32.5945 98.3069 31.3383 101.997 31.3383H103.331C103.331 30.0822 103.331 30.0822 101.997 30.0822H100.584L99.3275 30.3963H98.935V28.8261C100.191 28.5121 101.447 28.5121 101.997 28.5121C105.451 28.5121 105.451 30.5533 105.451 31.3383V32.5683C105.451 33.6674 105.451 33.6674 105.922 34.2954L104.352 35.473L103.488 34.3216ZM100.584 33.301C100.584 33.9291 100.584 33.9291 101.29 33.9291H101.447L103.331 33.458V32.5159H101.997C100.584 32.5159 100.584 32.5159 100.584 33.301ZM110.814 28.5121H111.442C114.582 28.5121 114.582 30.3178 114.582 30.9458L112.698 31.4169C112.358 30.0822 112.358 30.0822 111.128 30.0822C109.715 30.0822 109.715 30.0822 109.715 31.9664C109.715 33.8506 109.715 33.8506 111.808 33.8506H112.62L113.876 33.5365H114.268V35.1067C113.012 35.4207 111.599 35.4207 111.128 35.4207C107.517 35.4207 107.517 33.2225 107.517 32.2804V31.6524C107.517 30.7103 107.517 28.5121 110.814 28.5121ZM119.471 28.5121H120.099C123.239 28.5121 123.239 30.3178 123.239 30.9458L121.355 31.4169C121.015 30.0822 121.015 30.0822 119.785 30.0822C118.372 30.0822 118.372 30.0822 118.372 31.9664C118.372 33.8506 118.372 33.8506 120.465 33.8506H121.276L122.532 33.5365H122.925V35.1067C121.669 35.4207 120.256 35.4207 119.785 35.4207C116.173 35.4207 116.173 33.2225 116.173 32.2804V31.6524C116.173 30.7103 116.173 28.5121 119.471 28.5121ZM129.854 34.3216C129.122 34.8711 128.389 35.4207 126.95 35.4207C124.673 35.4207 124.673 34.0861 124.673 33.5365C124.673 32.5945 124.673 31.3383 128.363 31.3383H129.697C129.697 30.0822 129.697 30.0822 128.363 30.0822H126.95L125.694 30.3963H125.301V28.8261C126.557 28.5121 127.813 28.5121 128.363 28.5121C131.817 28.5121 131.817 30.5533 131.817 31.3383V32.5683C131.817 33.6674 131.817 33.6674 132.288 34.2954L130.718 35.473L129.854 34.3216ZM126.95 33.301C126.95 33.9291 126.95 33.9291 127.656 33.9291H127.813L129.697 33.458V32.5159H128.363C126.95 32.5159 126.95 32.5159 126.95 33.301ZM135.649 31.9664C133.883 30.6318 133.883 30.6318 133.883 29.1402V28.6691H136.238V29.1402C136.238 31.1028 136.238 31.1028 138.201 31.1028H138.672V28.6691H140.791V31.1028H141.262C143.225 31.1028 143.225 31.1028 143.225 29.1402V28.6691H145.58V29.1402C145.58 30.6318 145.58 30.6318 143.814 31.9664L145.816 34.6356V35.2637H143.618C142.754 34.1122 142.362 33.5889 142.362 32.83H140.791V35.2637H138.672V32.83H137.102C137.102 33.5889 136.709 34.1122 135.846 35.2637H133.647V34.6356L135.649 31.9664ZM153.845 35.473L152.982 34.3216C152.354 34.7926 151.516 35.4207 150.313 35.4207C147.643 35.4207 147.643 33.5365 147.643 32.3589V28.6691H149.763V31.9926C149.763 33.5889 149.763 33.5889 151.359 33.5889L152.825 33.2225V28.6691H154.944V32.7515C154.944 33.6674 154.944 33.6674 155.416 34.2954L153.845 35.473ZM157.401 28.6691H158.5L159.206 29.6112C159.834 29.1402 160.672 28.5121 162.033 28.5121C164.937 28.5121 164.937 30.7103 164.937 31.6524V32.2804C164.937 32.987 164.937 35.4207 161.797 35.4207C161.091 35.4207 160.463 35.2637 159.52 35.0282V37.9329H157.401V28.6691ZM162.739 31.9664C162.739 30.3439 162.739 30.3439 161.169 30.3439H160.986L159.52 30.7103V33.5365C160.135 33.6935 160.541 33.6935 161.012 33.6935C162.739 33.6935 162.739 33.6935 162.739 31.9664ZM170.063 28.5121H170.691C173.831 28.5121 173.831 30.3178 173.831 30.9458L171.947 31.4169C171.607 30.0822 171.607 30.0822 170.377 30.0822C168.964 30.0822 168.964 30.0822 168.964 31.9664C168.964 33.8506 168.964 33.8506 171.057 33.8506H171.869L173.125 33.5365H173.517V35.1067C172.261 35.4207 170.848 35.4207 170.377 35.4207C166.766 35.4207 166.766 33.2225 166.766 32.2804V31.6524C166.766 30.7103 166.766 28.5121 170.063 28.5121ZM175.736 28.6691H177.856V31.1028H178.641C180.604 31.1028 180.604 31.1028 180.604 29.1402V28.6691L182.959 28.6691V29.1402C182.959 30.6318 182.959 30.6318 181.193 31.9664L183.194 34.6356V35.2637L180.996 35.2637C180.133 34.1122 179.74 33.5889 179.74 32.83H177.856V35.2637H175.736V28.6691ZM191.232 35.473L190.368 34.3216C189.74 34.7926 188.903 35.4207 187.699 35.4207C185.03 35.4207 185.03 33.5365 185.03 32.3589V28.6691H187.15V31.9926C187.15 33.5889 187.15 33.5889 188.746 33.5889L190.211 33.2225V28.6691H192.331V32.7515C192.331 33.6674 192.331 33.6674 192.802 34.2954L191.232 35.473ZM196.672 32.5945C196.672 33.8506 196.672 33.8506 198.085 33.8506H199.576L200.832 33.5365H201.225V35.1067C199.969 35.4207 198.556 35.4207 198.085 35.4207C194.473 35.4207 194.473 33.2225 194.473 32.2804V31.6524C194.473 30.7103 194.473 28.5121 197.771 28.5121L198.399 28.5121C201.696 28.5121 201.696 30.7103 201.696 31.6262V32.2804L201.068 32.4374C200.44 32.5945 199.969 32.5945 198.085 32.5945L196.672 32.5945ZM196.672 31.4169L199.498 31.4169C199.498 30.0037 199.498 30.0037 198.085 30.0037C196.672 30.0037 196.672 30.0037 196.672 31.4169ZM208.74 28.6691H209.839L210.546 29.6112C211.174 29.1402 212.011 28.5121 213.372 28.5121C216.277 28.5121 216.277 30.7103 216.277 31.6524V32.2804C216.277 32.987 216.277 35.4207 213.137 35.4207C212.43 35.4207 211.802 35.2637 210.86 35.0282V37.9329H208.74V28.6691ZM214.079 31.9664C214.079 30.3439 214.079 30.3439 212.509 30.3439H212.325L210.86 30.7103V33.5365C211.475 33.6935 211.88 33.6935 212.352 33.6935C214.079 33.6935 214.079 33.6935 214.079 31.9664ZM220.303 32.5945C220.303 33.8506 220.303 33.8506 221.716 33.8506H223.208L224.464 33.5365H224.857V35.1067C223.601 35.4207 222.187 35.4207 221.716 35.4207C218.105 35.4207 218.105 33.2225 218.105 32.2804V31.6524C218.105 30.7103 218.105 28.5121 221.402 28.5121H222.03C225.328 28.5121 225.328 30.7103 225.328 31.6262V32.2804L224.7 32.4374C224.072 32.5945 223.601 32.5945 221.716 32.5945H220.303ZM220.303 31.4169H223.13C223.13 30.0037 223.13 30.0037 221.716 30.0037C220.303 30.0037 220.303 30.0037 220.303 31.4169ZM227.317 32.673V28.6691H229.436V32.4636C229.436 33.5889 229.436 33.5889 230.562 33.5889L232.027 33.2225V28.6691H234.147V32.4636C234.147 33.5889 234.147 33.5889 235.272 33.5889L236.737 33.2225V28.6691H238.857V32.7515C238.857 33.6674 238.857 33.6674 239.328 34.2954L237.758 35.473L236.895 34.3216C236.266 34.7926 235.429 35.4207 234.461 35.4207C233.179 35.4207 232.655 34.7403 232.341 34.3216C231.713 34.7926 230.876 35.4207 229.829 35.4207C227.317 35.4207 227.317 33.458 227.317 32.673ZM243.2 32.5945C243.2 33.8506 243.2 33.8506 244.614 33.8506H246.105L247.361 33.5365H247.754V35.1067C246.498 35.4207 245.085 35.4207 244.614 35.4207C241.002 35.4207 241.002 33.2225 241.002 32.2804V31.6524C241.002 30.7103 241.002 28.5121 244.3 28.5121H244.928C248.225 28.5121 248.225 30.7103 248.225 31.6262V32.2804L247.597 32.4374C246.969 32.5945 246.498 32.5945 244.614 32.5945H243.2ZM243.2 31.4169H246.027C246.027 30.0037 246.027 30.0037 244.614 30.0037C243.2 30.0037 243.2 30.0037 243.2 31.4169ZM255.474 28.6691H257.594V35.2637H255.474V32.83H252.412V35.2637H250.292V28.6691H252.412V31.1028H255.474V28.6691ZM266.171 35.473L265.308 34.3216C264.68 34.7926 263.842 35.4207 262.639 35.4207C259.969 35.4207 259.969 33.5365 259.969 32.3589V28.6691H262.089V31.9926C262.089 33.5889 262.089 33.5889 263.685 33.5889L265.151 33.2225V28.6691L267.271 28.6691V32.7515C267.271 33.6674 267.271 33.6674 267.742 34.2954L266.171 35.473ZM276.4 28.6691V35.2637H274.28V33.3795H272.396C272.396 34.3216 272.082 34.7403 271.69 35.2637H269.491V34.6356L270.747 32.9608C269.701 32.1757 269.334 31.901 269.334 30.7888C269.334 28.6691 271.533 28.6691 273.103 28.6691H276.4ZM274.28 31.9664V30.0822H272.71C271.611 30.0822 271.611 30.0822 271.611 31.0112C271.611 31.9664 271.611 31.9664 272.71 31.9664H274.28Z" fill="#231F20"/>
<path d="M57.0682 11.9751V13.2818L68.278 13.2818C69.0253 13.2818 70.1463 13.2818 70.8823 14.0291C71.6183 14.7764 71.6296 15.8974 71.6296 16.6334V27.8432C71.6296 28.5906 71.6296 29.7116 70.8823 30.4475C70.135 31.1949 69.014 31.1949 68.278 31.1949H62.8656C61.9325 31.1949 60.7164 31.1949 60.2613 30.1667C59.7947 29.1386 60.4479 28.2056 61.0086 27.4492L68.3006 17.734L57.0908 17.734L52.6069 23.7126C51.855 24.7136 51.2051 25.5809 51.2051 26.7019C51.2051 27.8229 51.8097 28.6291 52.6069 29.6912L53.7279 31.1858C54.8488 32.6805 55.9698 34.1751 57.4645 34.9224C58.9591 35.6697 60.7255 35.6697 63.1713 35.6697H68.0175C70.8257 35.6697 75.0152 35.6697 77.8233 32.8616C80.6314 30.0535 80.6314 25.9546 80.6314 24.4599V19.976C80.6314 18.4813 80.6314 14.3824 77.8233 11.5743C75.0152 8.76617 70.8257 8.76617 68.0175 8.76617L60.2726 8.76368C59.5253 8.76345 58.5922 8.76368 57.8494 9.511C57.1021 10.2583 57.1021 11.1913 57.1021 11.9341" fill="#E52713"/>
<path d="M43.7069 17.7725H54.8035L41.4423 35.7535H30.3457L43.7069 17.7725Z" fill="#E52713"/>
<path d="M0 20.9429C0 20.1956 0 19.2626 0.747321 18.5198C1.49464 17.777 2.42766 17.7725 3.17045 17.7725L21.9441 17.7725C24.3672 17.7725 26.1563 17.7725 27.6509 18.5198C29.1455 19.2671 30.2552 20.7617 31.3875 22.2564L32.5085 23.751C33.3034 24.8109 33.9103 25.6193 33.9103 26.7403C33.9103 27.8613 33.2603 28.7286 32.5085 29.7296L28.0246 35.7082L16.8147 35.7082L24.1068 25.993C24.6661 25.2457 25.3206 24.3127 24.8541 23.2755C24.3876 22.2473 23.1738 22.2473 22.2498 22.2473H13.4631L13.4631 44.667H4.49525L4.49525 22.2473H0.0113231L0.0113231 20.9384" fill="#E52713"/>
</g>
<defs>
<clipPath id="clip0_2950_7544">
<rect width="278" height="49" fill="white" transform="translate(0 0.763672)"/>
</clipPath>
</defs>
</svg>
